<?xml version="1.0" encoding="UTF-8" standalone="no"?>
<!DOCTYPE svg PUBLIC "-//W3C//DTD SVG 1.1//EN"
 "http://www.w3.org/Graphics/SVG/1.1/DTD/svg11.dtd">
<!-- Generated by graphviz version 5.0.0 (20220707.1540)
 -->
<!-- Title: dependencies Pages: 1 -->
<svg width="138pt" height="174pt"
 viewBox="0.00 0.00 138.00 173.80" xmlns="http://www.w3.org/2000/svg" xmlns:xlink="http://www.w3.org/1999/xlink">
<g id="graph0" class="graph" transform="scale(1 1) rotate(0) translate(4 169.8)">
<title>dependencies</title>
<polygon fill="white" stroke="transparent" points="-4,4 -4,-169.8 134,-169.8 134,4 -4,4"/>
<text text-anchor="middle" x="65" y="-8.2" font-family="sans-serif" font-size="14.00">dependencies</text>
<g id="clust1" class="cluster">
<title>cluster_SharedModule</title>
<polygon fill="none" stroke="black" stroke-dasharray="1,5" points="8,-32.8 8,-157.8 122,-157.8 122,-32.8 8,-32.8"/>
</g>
<g id="clust4" class="cluster">
<title>cluster_SharedModule_exports</title>
<polygon fill="none" stroke="black" points="18,-97.8 18,-149.8 112,-149.8 112,-97.8 18,-97.8"/>
</g>
<!-- UIModule  -->
<g id="node1" class="node">
<title>UIModule </title>
<polygon fill="#fb8072" stroke="black" points="103.82,-141.8 26.18,-141.8 26.18,-105.8 103.82,-105.8 103.82,-141.8"/>
<text text-anchor="middle" x="65" y="-119.6" font-family="Times,serif" font-size="14.00">UIModule </text>
</g>
<!-- SharedModule -->
<g id="node2" class="node">
<title>SharedModule</title>
<polygon fill="#8dd3c7" stroke="black" points="114.43,-76.8 111.43,-80.8 90.43,-80.8 87.43,-76.8 15.57,-76.8 15.57,-40.8 114.43,-40.8 114.43,-76.8"/>
<text text-anchor="middle" x="65" y="-54.6" font-family="Times,serif" font-size="14.00">SharedModule</text>
</g>
<!-- SharedModule&#45;&gt;UIModule  -->
<g id="edge1" class="edge">
<title>SharedModule&#45;&gt;UIModule </title>
<path fill="none" stroke="black" stroke-dasharray="5,2" d="M65,-76.91C65,-76.91 65,-95.79 65,-95.79"/>
<polygon fill="black" stroke="black" points="61.5,-95.79 65,-105.79 68.5,-95.79 61.5,-95.79"/>
</g>
</g>
</svg>
