<?xml version="1.0" encoding="UTF-8" standalone="no"?>
<!DOCTYPE svg PUBLIC "-//W3C//DTD SVG 1.1//EN"
 "http://www.w3.org/Graphics/SVG/1.1/DTD/svg11.dtd">
<!-- Generated by graphviz version 5.0.0 (20220707.1540)
 -->
<!-- Title: dependencies Pages: 1 -->
<svg width="1039pt" height="174pt"
 viewBox="0.00 0.00 1039.00 173.80" xmlns="http://www.w3.org/2000/svg" xmlns:xlink="http://www.w3.org/1999/xlink">
<g id="graph0" class="graph" transform="scale(1 1) rotate(0) translate(4 169.8)">
<title>dependencies</title>
<polygon fill="white" stroke="transparent" points="-4,4 -4,-169.8 1035,-169.8 1035,4 -4,4"/>
<text text-anchor="middle" x="515.5" y="-8.2" font-family="sans-serif" font-size="14.00">dependencies</text>
<g id="clust1" class="cluster">
<title>cluster_AdminModule</title>
<polygon fill="none" stroke="black" stroke-dasharray="1,5" points="8,-32.8 8,-157.8 1023,-157.8 1023,-32.8 8,-32.8"/>
</g>
<g id="clust2" class="cluster">
<title>cluster_AdminModule_declarations</title>
<polygon fill="none" stroke="black" points="300,-40.8 300,-92.8 1015,-92.8 1015,-40.8 300,-40.8"/>
</g>
<g id="clust8" class="cluster">
<title>cluster_AdminModule_imports</title>
<polygon fill="none" stroke="black" points="16,-40.8 16,-92.8 292,-92.8 292,-40.8 16,-40.8"/>
</g>
<!-- PostsComponent -->
<g id="node1" class="node">
<title>PostsComponent</title>
<polygon fill="#ffffb3" stroke="black" points="1007.4,-84.8 896.6,-84.8 896.6,-48.8 1007.4,-48.8 1007.4,-84.8"/>
<text text-anchor="middle" x="952" y="-62.6" font-family="Times,serif" font-size="14.00">PostsComponent</text>
</g>
<!-- AdminModule -->
<g id="node6" class="node">
<title>AdminModule</title>
<polygon fill="#8dd3c7" stroke="black" points="553.44,-149.8 550.44,-153.8 529.44,-153.8 526.44,-149.8 454.56,-149.8 454.56,-113.8 553.44,-113.8 553.44,-149.8"/>
<text text-anchor="middle" x="504" y="-127.6" font-family="Times,serif" font-size="14.00">AdminModule</text>
</g>
<!-- PostsComponent&#45;&gt;AdminModule -->
<g id="edge1" class="edge">
<title>PostsComponent&#45;&gt;AdminModule</title>
<path fill="none" stroke="black" d="M952,-85.09C952,-107.01 952,-140.8 952,-140.8 952,-140.8 563.23,-140.8 563.23,-140.8"/>
<polygon fill="black" stroke="black" points="563.23,-137.3 553.23,-140.8 563.23,-144.3 563.23,-137.3"/>
</g>
<!-- UserCardComponent -->
<g id="node2" class="node">
<title>UserCardComponent</title>
<polygon fill="#ffffb3" stroke="black" points="878.48,-84.8 743.52,-84.8 743.52,-48.8 878.48,-48.8 878.48,-84.8"/>
<text text-anchor="middle" x="811" y="-62.6" font-family="Times,serif" font-size="14.00">UserCardComponent</text>
</g>
<!-- UserCardComponent&#45;&gt;AdminModule -->
<g id="edge2" class="edge">
<title>UserCardComponent&#45;&gt;AdminModule</title>
<path fill="none" stroke="black" d="M811,-84.91C811,-104.14 811,-131.8 811,-131.8 811,-131.8 563.32,-131.8 563.32,-131.8"/>
<polygon fill="black" stroke="black" points="563.32,-128.3 553.32,-131.8 563.32,-135.3 563.32,-128.3"/>
</g>
<!-- UserFormComponent -->
<g id="node3" class="node">
<title>UserFormComponent</title>
<polygon fill="#ffffb3" stroke="black" points="725.1,-84.8 586.9,-84.8 586.9,-48.8 725.1,-48.8 725.1,-84.8"/>
<text text-anchor="middle" x="656" y="-62.6" font-family="Times,serif" font-size="14.00">UserFormComponent</text>
</g>
<!-- UserFormComponent&#45;&gt;AdminModule -->
<g id="edge3" class="edge">
<title>UserFormComponent&#45;&gt;AdminModule</title>
<path fill="none" stroke="black" d="M656,-84.83C656,-101.2 656,-122.8 656,-122.8 656,-122.8 563.35,-122.8 563.35,-122.8"/>
<polygon fill="black" stroke="black" points="563.35,-119.3 553.35,-122.8 563.35,-126.3 563.35,-119.3"/>
</g>
<!-- UserListComponent -->
<g id="node4" class="node">
<title>UserListComponent</title>
<polygon fill="#ffffb3" stroke="black" points="568.55,-84.8 439.45,-84.8 439.45,-48.8 568.55,-48.8 568.55,-84.8"/>
<text text-anchor="middle" x="504" y="-62.6" font-family="Times,serif" font-size="14.00">UserListComponent</text>
</g>
<!-- UserListComponent&#45;&gt;AdminModule -->
<g id="edge4" class="edge">
<title>UserListComponent&#45;&gt;AdminModule</title>
<path fill="none" stroke="black" d="M504,-84.91C504,-84.91 504,-103.79 504,-103.79"/>
<polygon fill="black" stroke="black" points="500.5,-103.79 504,-113.79 507.5,-103.79 500.5,-103.79"/>
</g>
<!-- UsersComponent -->
<g id="node5" class="node">
<title>UsersComponent</title>
<polygon fill="#ffffb3" stroke="black" points="421.71,-84.8 308.29,-84.8 308.29,-48.8 421.71,-48.8 421.71,-84.8"/>
<text text-anchor="middle" x="365" y="-62.6" font-family="Times,serif" font-size="14.00">UsersComponent</text>
</g>
<!-- UsersComponent&#45;&gt;AdminModule -->
<g id="edge5" class="edge">
<title>UsersComponent&#45;&gt;AdminModule</title>
<path fill="none" stroke="black" d="M365,-84.83C365,-101.2 365,-122.8 365,-122.8 365,-122.8 444.6,-122.8 444.6,-122.8"/>
<polygon fill="black" stroke="black" points="444.6,-126.3 454.6,-122.8 444.6,-119.3 444.6,-126.3"/>
</g>
<!-- AdminRoutingModule -->
<g id="node7" class="node">
<title>AdminRoutingModule</title>
<polygon fill="#8dd3c7" stroke="black" points="283.56,-84.8 280.56,-88.8 259.56,-88.8 256.56,-84.8 140.44,-84.8 140.44,-48.8 283.56,-48.8 283.56,-84.8"/>
<text text-anchor="middle" x="212" y="-62.6" font-family="Times,serif" font-size="14.00">AdminRoutingModule</text>
</g>
<!-- AdminRoutingModule&#45;&gt;AdminModule -->
<g id="edge6" class="edge">
<title>AdminRoutingModule&#45;&gt;AdminModule</title>
<path fill="none" stroke="black" d="M212,-84.91C212,-104.14 212,-131.8 212,-131.8 212,-131.8 444.47,-131.8 444.47,-131.8"/>
<polygon fill="black" stroke="black" points="444.47,-135.3 454.47,-131.8 444.47,-128.3 444.47,-135.3"/>
</g>
<!-- SharedModule -->
<g id="node8" class="node">
<title>SharedModule</title>
<polygon fill="#8dd3c7" stroke="black" points="122.43,-84.8 119.43,-88.8 98.43,-88.8 95.43,-84.8 23.57,-84.8 23.57,-48.8 122.43,-48.8 122.43,-84.8"/>
<text text-anchor="middle" x="73" y="-62.6" font-family="Times,serif" font-size="14.00">SharedModule</text>
</g>
<!-- SharedModule&#45;&gt;AdminModule -->
<g id="edge7" class="edge">
<title>SharedModule&#45;&gt;AdminModule</title>
<path fill="none" stroke="black" d="M73,-85.09C73,-107.01 73,-140.8 73,-140.8 73,-140.8 444.56,-140.8 444.56,-140.8"/>
<polygon fill="black" stroke="black" points="444.56,-144.3 454.56,-140.8 444.56,-137.3 444.56,-144.3"/>
</g>
</g>
</svg>
