<?xml version="1.0" encoding="UTF-8" standalone="no"?>
<!DOCTYPE svg PUBLIC "-//W3C//DTD SVG 1.1//EN"
 "http://www.w3.org/Graphics/SVG/1.1/DTD/svg11.dtd">
<!-- Generated by graphviz version 5.0.0 (20220707.1540)
 -->
<!-- Title: dependencies Pages: 1 -->
<svg width="1357pt" height="247pt"
 viewBox="0.00 0.00 1357.00 246.80" xmlns="http://www.w3.org/2000/svg" xmlns:xlink="http://www.w3.org/1999/xlink">
<g id="graph0" class="graph" transform="scale(1 1) rotate(0) translate(4 242.8)">
<title>dependencies</title>
<polygon fill="white" stroke="transparent" points="-4,4 -4,-242.8 1353,-242.8 1353,4 -4,4"/>
<text text-anchor="middle" x="674.5" y="-8.2" font-family="sans-serif" font-size="14.00">dependencies</text>
<g id="clust1" class="cluster">
<title>cluster_AppModule</title>
<polygon fill="none" stroke="black" stroke-dasharray="1,5" points="8,-32.8 8,-230.8 1341,-230.8 1341,-32.8 8,-32.8"/>
</g>
<g id="clust2" class="cluster">
<title>cluster_AppModule_declarations</title>
<polygon fill="none" stroke="black" points="285,-40.8 285,-92.8 1333,-92.8 1333,-40.8 285,-40.8"/>
</g>
<g id="clust12" class="cluster">
<title>cluster_AppModule_bootstrap</title>
<polygon fill="none" stroke="black" points="608,-170.8 608,-222.8 732,-222.8 732,-170.8 608,-170.8"/>
</g>
<g id="clust10" class="cluster">
<title>cluster_AppModule_imports</title>
<polygon fill="none" stroke="black" points="16,-40.8 16,-92.8 277,-92.8 277,-40.8 16,-40.8"/>
</g>
<!-- AppComponent -->
<g id="node1" class="node">
<title>AppComponent</title>
<polygon fill="#ffffb3" stroke="black" points="1324.94,-84.8 1219.06,-84.8 1219.06,-48.8 1324.94,-48.8 1324.94,-84.8"/>
<text text-anchor="middle" x="1272" y="-62.6" font-family="Times,serif" font-size="14.00">AppComponent</text>
</g>
<!-- AppModule -->
<g id="node8" class="node">
<title>AppModule</title>
<polygon fill="#8dd3c7" stroke="black" points="711.66,-149.8 708.66,-153.8 687.66,-153.8 684.66,-149.8 628.34,-149.8 628.34,-113.8 711.66,-113.8 711.66,-149.8"/>
<text text-anchor="middle" x="670" y="-127.6" font-family="Times,serif" font-size="14.00">AppModule</text>
</g>
<!-- AppComponent&#45;&gt;AppModule -->
<g id="edge1" class="edge">
<title>AppComponent&#45;&gt;AppModule</title>
<path fill="none" stroke="black" d="M1272,-84.81C1272,-107.29 1272,-142.8 1272,-142.8 1272,-142.8 721.85,-142.8 721.85,-142.8"/>
<polygon fill="black" stroke="black" points="721.85,-139.3 711.85,-142.8 721.85,-146.3 721.85,-139.3"/>
</g>
<!-- ExponentialStrengthPipe -->
<g id="node2" class="node">
<title>ExponentialStrengthPipe</title>
<polygon fill="#ffffb3" stroke="black" points="1200.98,-84.8 1045.02,-84.8 1045.02,-48.8 1200.98,-48.8 1200.98,-84.8"/>
<text text-anchor="middle" x="1123" y="-62.6" font-family="Times,serif" font-size="14.00">ExponentialStrengthPipe</text>
</g>
<!-- ExponentialStrengthPipe&#45;&gt;AppModule -->
<g id="edge2" class="edge">
<title>ExponentialStrengthPipe&#45;&gt;AppModule</title>
<path fill="none" stroke="black" d="M1123,-84.93C1123,-105.37 1123,-135.8 1123,-135.8 1123,-135.8 721.81,-135.8 721.81,-135.8"/>
<polygon fill="black" stroke="black" points="721.81,-132.3 711.81,-135.8 721.81,-139.3 721.81,-132.3"/>
</g>
<!-- GetStartedComponent -->
<g id="node3" class="node">
<title>GetStartedComponent</title>
<polygon fill="#ffffb3" stroke="black" points="1026.7,-84.8 885.3,-84.8 885.3,-48.8 1026.7,-48.8 1026.7,-84.8"/>
<text text-anchor="middle" x="956" y="-62.6" font-family="Times,serif" font-size="14.00">GetStartedComponent</text>
</g>
<!-- GetStartedComponent&#45;&gt;AppModule -->
<g id="edge3" class="edge">
<title>GetStartedComponent&#45;&gt;AppModule</title>
<path fill="none" stroke="black" d="M956,-85.07C956,-103.36 956,-128.8 956,-128.8 956,-128.8 721.89,-128.8 721.89,-128.8"/>
<polygon fill="black" stroke="black" points="721.89,-125.3 711.89,-128.8 721.89,-132.3 721.89,-125.3"/>
</g>
<!-- HeaderComponent -->
<g id="node4" class="node">
<title>HeaderComponent</title>
<polygon fill="#ffffb3" stroke="black" points="867.75,-84.8 746.25,-84.8 746.25,-48.8 867.75,-48.8 867.75,-84.8"/>
<text text-anchor="middle" x="807" y="-62.6" font-family="Times,serif" font-size="14.00">HeaderComponent</text>
</g>
<!-- HeaderComponent&#45;&gt;AppModule -->
<g id="edge4" class="edge">
<title>HeaderComponent&#45;&gt;AppModule</title>
<path fill="none" stroke="black" d="M807,-84.81C807,-100.85 807,-121.8 807,-121.8 807,-121.8 721.85,-121.8 721.85,-121.8"/>
<polygon fill="black" stroke="black" points="721.85,-118.3 711.85,-121.8 721.85,-125.3 721.85,-118.3"/>
</g>
<!-- HomeComponent -->
<g id="node5" class="node">
<title>HomeComponent</title>
<polygon fill="#ffffb3" stroke="black" points="727.55,-84.8 612.45,-84.8 612.45,-48.8 727.55,-48.8 727.55,-84.8"/>
<text text-anchor="middle" x="670" y="-62.6" font-family="Times,serif" font-size="14.00">HomeComponent</text>
</g>
<!-- HomeComponent&#45;&gt;AppModule -->
<g id="edge5" class="edge">
<title>HomeComponent&#45;&gt;AppModule</title>
<path fill="none" stroke="black" d="M670,-84.91C670,-84.91 670,-103.79 670,-103.79"/>
<polygon fill="black" stroke="black" points="666.5,-103.79 670,-113.79 673.5,-103.79 666.5,-103.79"/>
</g>
<!-- LoginFormComponent -->
<g id="node6" class="node">
<title>LoginFormComponent</title>
<polygon fill="#ffffb3" stroke="black" points="594.61,-84.8 449.39,-84.8 449.39,-48.8 594.61,-48.8 594.61,-84.8"/>
<text text-anchor="middle" x="522" y="-62.6" font-family="Times,serif" font-size="14.00">LoginFormComponent</text>
</g>
<!-- LoginFormComponent&#45;&gt;AppModule -->
<g id="edge6" class="edge">
<title>LoginFormComponent&#45;&gt;AppModule</title>
<path fill="none" stroke="black" d="M522,-84.81C522,-100.85 522,-121.8 522,-121.8 522,-121.8 617.99,-121.8 617.99,-121.8"/>
<polygon fill="black" stroke="black" points="617.99,-125.3 627.99,-121.8 617.98,-118.3 617.99,-125.3"/>
</g>
<!-- NotFoundComponent -->
<g id="node7" class="node">
<title>NotFoundComponent</title>
<polygon fill="#ffffb3" stroke="black" points="431.12,-84.8 292.88,-84.8 292.88,-48.8 431.12,-48.8 431.12,-84.8"/>
<text text-anchor="middle" x="362" y="-62.6" font-family="Times,serif" font-size="14.00">NotFoundComponent</text>
</g>
<!-- NotFoundComponent&#45;&gt;AppModule -->
<g id="edge7" class="edge">
<title>NotFoundComponent&#45;&gt;AppModule</title>
<path fill="none" stroke="black" d="M362,-85.07C362,-103.36 362,-128.8 362,-128.8 362,-128.8 618.14,-128.8 618.14,-128.8"/>
<polygon fill="black" stroke="black" points="618.14,-132.3 628.14,-128.8 618.14,-125.3 618.14,-132.3"/>
</g>
<!-- AppComponent  -->
<g id="node11" class="node">
<title>AppComponent </title>
<polygon fill="#80b1d3" stroke="black" points="724.44,-214.8 615.56,-214.8 615.56,-178.8 724.44,-178.8 724.44,-214.8"/>
<text text-anchor="middle" x="670" y="-192.6" font-family="Times,serif" font-size="14.00">AppComponent </text>
</g>
<!-- AppModule&#45;&gt;AppComponent  -->
<g id="edge10" class="edge">
<title>AppModule&#45;&gt;AppComponent </title>
<path fill="none" stroke="black" stroke-dasharray="1,5" d="M670,-149.91C670,-149.91 670,-168.79 670,-168.79"/>
<polygon fill="black" stroke="black" points="666.5,-168.79 670,-178.79 673.5,-168.79 666.5,-168.79"/>
</g>
<!-- AppRoutingModule -->
<g id="node9" class="node">
<title>AppRoutingModule</title>
<polygon fill="#8dd3c7" stroke="black" points="269.28,-84.8 266.28,-88.8 245.28,-88.8 242.28,-84.8 140.72,-84.8 140.72,-48.8 269.28,-48.8 269.28,-84.8"/>
<text text-anchor="middle" x="205" y="-62.6" font-family="Times,serif" font-size="14.00">AppRoutingModule</text>
</g>
<!-- AppRoutingModule&#45;&gt;AppModule -->
<g id="edge8" class="edge">
<title>AppRoutingModule&#45;&gt;AppModule</title>
<path fill="none" stroke="black" d="M205,-84.93C205,-105.37 205,-135.8 205,-135.8 205,-135.8 618.33,-135.8 618.33,-135.8"/>
<polygon fill="black" stroke="black" points="618.33,-139.3 628.33,-135.8 618.33,-132.3 618.33,-139.3"/>
</g>
<!-- SharedModule -->
<g id="node10" class="node">
<title>SharedModule</title>
<polygon fill="#8dd3c7" stroke="black" points="122.43,-84.8 119.43,-88.8 98.43,-88.8 95.43,-84.8 23.57,-84.8 23.57,-48.8 122.43,-48.8 122.43,-84.8"/>
<text text-anchor="middle" x="73" y="-62.6" font-family="Times,serif" font-size="14.00">SharedModule</text>
</g>
<!-- SharedModule&#45;&gt;AppModule -->
<g id="edge9" class="edge">
<title>SharedModule&#45;&gt;AppModule</title>
<path fill="none" stroke="black" d="M73,-84.81C73,-107.29 73,-142.8 73,-142.8 73,-142.8 618.02,-142.8 618.02,-142.8"/>
<polygon fill="black" stroke="black" points="618.02,-146.3 628.02,-142.8 618.02,-139.3 618.02,-146.3"/>
</g>
</g>
</svg>
