<?xml version="1.0" encoding="UTF-8" standalone="no"?>
<!DOCTYPE svg PUBLIC "-//W3C//DTD SVG 1.1//EN"
 "http://www.w3.org/Graphics/SVG/1.1/DTD/svg11.dtd">
<!-- Generated by graphviz version 5.0.0 (20220707.1540)
 -->
<!-- Title: dependencies Pages: 1 -->
<svg width="2381pt" height="253pt"
 viewBox="0.00 0.00 2381.00 252.80" xmlns="http://www.w3.org/2000/svg" xmlns:xlink="http://www.w3.org/1999/xlink">
<g id="graph0" class="graph" transform="scale(1 1) rotate(0) translate(4 248.8)">
<title>dependencies</title>
<polygon fill="white" stroke="transparent" points="-4,4 -4,-248.8 2377,-248.8 2377,4 -4,4"/>
<text text-anchor="middle" x="1186.5" y="-8.2" font-family="sans-serif" font-size="14.00">dependencies</text>
<g id="clust1" class="cluster">
<title>cluster_AdminModule</title>
<polygon fill="none" stroke="black" stroke-dasharray="1,5" points="8,-32.8 8,-160.8 1023,-160.8 1023,-32.8 8,-32.8"/>
</g>
<g id="clust2" class="cluster">
<title>cluster_AdminModule_declarations</title>
<polygon fill="none" stroke="black" points="16,-40.8 16,-92.8 731,-92.8 731,-40.8 16,-40.8"/>
</g>
<g id="clust8" class="cluster">
<title>cluster_AdminModule_imports</title>
<polygon fill="none" stroke="black" points="739,-40.8 739,-92.8 1015,-92.8 1015,-40.8 739,-40.8"/>
</g>
<g id="clust18" class="cluster">
<title>cluster_AppModule</title>
<polygon fill="none" stroke="black" stroke-dasharray="1,5" points="1149,-32.8 1149,-236.8 2365,-236.8 2365,-32.8 1149,-32.8"/>
</g>
<g id="clust19" class="cluster">
<title>cluster_AppModule_declarations</title>
<polygon fill="none" stroke="black" points="1309,-40.8 1309,-92.8 2357,-92.8 2357,-40.8 1309,-40.8"/>
</g>
<g id="clust27" class="cluster">
<title>cluster_AppModule_imports</title>
<polygon fill="none" stroke="black" points="1157,-40.8 1157,-92.8 1301,-92.8 1301,-40.8 1157,-40.8"/>
</g>
<g id="clust29" class="cluster">
<title>cluster_AppModule_bootstrap</title>
<polygon fill="none" stroke="black" points="1632,-176.8 1632,-228.8 1756,-228.8 1756,-176.8 1632,-176.8"/>
</g>
<g id="clust37" class="cluster">
<title>cluster_SharedModule</title>
<polygon fill="none" stroke="black" stroke-dasharray="1,5" points="1031,-100.8 1031,-168.8 1141,-168.8 1141,-100.8 1031,-100.8"/>
</g>
<g id="clust40" class="cluster">
<title>cluster_SharedModule_exports</title>
<polygon fill="none" stroke="black" points="1039,-108.8 1039,-160.8 1133,-160.8 1133,-108.8 1039,-108.8"/>
</g>
<!-- PostsComponent -->
<g id="node1" class="node">
<title>PostsComponent</title>
<polygon fill="#ffffb3" stroke="black" points="723.4,-84.8 612.6,-84.8 612.6,-48.8 723.4,-48.8 723.4,-84.8"/>
<text text-anchor="middle" x="668" y="-62.6" font-family="Times,serif" font-size="14.00">PostsComponent</text>
</g>
<!-- AdminModule -->
<g id="node6" class="node">
<title>AdminModule</title>
<polygon fill="#8dd3c7" stroke="black" points="576.44,-152.8 573.44,-156.8 552.44,-156.8 549.44,-152.8 477.56,-152.8 477.56,-116.8 576.44,-116.8 576.44,-152.8"/>
<text text-anchor="middle" x="527" y="-130.6" font-family="Times,serif" font-size="14.00">AdminModule</text>
</g>
<!-- PostsComponent&#45;&gt;AdminModule -->
<g id="edge1" class="edge">
<title>PostsComponent&#45;&gt;AdminModule</title>
<path fill="none" stroke="black" d="M668,-84.82C668,-102.17 668,-125.8 668,-125.8 668,-125.8 586.31,-125.8 586.31,-125.8"/>
<polygon fill="black" stroke="black" points="586.31,-122.3 576.31,-125.8 586.31,-129.3 586.31,-122.3"/>
</g>
<!-- UserCardComponent -->
<g id="node2" class="node">
<title>UserCardComponent</title>
<polygon fill="#ffffb3" stroke="black" points="594.48,-84.8 459.52,-84.8 459.52,-48.8 594.48,-48.8 594.48,-84.8"/>
<text text-anchor="middle" x="527" y="-62.6" font-family="Times,serif" font-size="14.00">UserCardComponent</text>
</g>
<!-- UserCardComponent&#45;&gt;AdminModule -->
<g id="edge2" class="edge">
<title>UserCardComponent&#45;&gt;AdminModule</title>
<path fill="none" stroke="black" d="M527,-85.02C527,-85.02 527,-106.53 527,-106.53"/>
<polygon fill="black" stroke="black" points="523.5,-106.53 527,-116.53 530.5,-106.53 523.5,-106.53"/>
</g>
<!-- UserFormComponent -->
<g id="node3" class="node">
<title>UserFormComponent</title>
<polygon fill="#ffffb3" stroke="black" points="441.1,-84.8 302.9,-84.8 302.9,-48.8 441.1,-48.8 441.1,-84.8"/>
<text text-anchor="middle" x="372" y="-62.6" font-family="Times,serif" font-size="14.00">UserFormComponent</text>
</g>
<!-- UserFormComponent&#45;&gt;AdminModule -->
<g id="edge3" class="edge">
<title>UserFormComponent&#45;&gt;AdminModule</title>
<path fill="none" stroke="black" d="M372,-84.82C372,-102.17 372,-125.8 372,-125.8 372,-125.8 467.53,-125.8 467.53,-125.8"/>
<polygon fill="black" stroke="black" points="467.53,-129.3 477.53,-125.8 467.53,-122.3 467.53,-129.3"/>
</g>
<!-- UserListComponent -->
<g id="node4" class="node">
<title>UserListComponent</title>
<polygon fill="#ffffb3" stroke="black" points="284.55,-84.8 155.45,-84.8 155.45,-48.8 284.55,-48.8 284.55,-84.8"/>
<text text-anchor="middle" x="220" y="-62.6" font-family="Times,serif" font-size="14.00">UserListComponent</text>
</g>
<!-- UserListComponent&#45;&gt;AdminModule -->
<g id="edge4" class="edge">
<title>UserListComponent&#45;&gt;AdminModule</title>
<path fill="none" stroke="black" d="M220,-85.02C220,-105.17 220,-134.8 220,-134.8 220,-134.8 467.68,-134.8 467.68,-134.8"/>
<polygon fill="black" stroke="black" points="467.68,-138.3 477.68,-134.8 467.68,-131.3 467.68,-138.3"/>
</g>
<!-- UsersComponent -->
<g id="node5" class="node">
<title>UsersComponent</title>
<polygon fill="#ffffb3" stroke="black" points="137.71,-84.8 24.29,-84.8 24.29,-48.8 137.71,-48.8 137.71,-84.8"/>
<text text-anchor="middle" x="81" y="-62.6" font-family="Times,serif" font-size="14.00">UsersComponent</text>
</g>
<!-- UsersComponent&#45;&gt;AdminModule -->
<g id="edge5" class="edge">
<title>UsersComponent&#45;&gt;AdminModule</title>
<path fill="none" stroke="black" d="M81,-85.05C81,-107.82 81,-143.8 81,-143.8 81,-143.8 467.57,-143.8 467.57,-143.8"/>
<polygon fill="black" stroke="black" points="467.57,-147.3 477.57,-143.8 467.57,-140.3 467.57,-147.3"/>
</g>
<!-- AdminRoutingModule -->
<g id="node7" class="node">
<title>AdminRoutingModule</title>
<polygon fill="#8dd3c7" stroke="black" points="890.56,-84.8 887.56,-88.8 866.56,-88.8 863.56,-84.8 747.44,-84.8 747.44,-48.8 890.56,-48.8 890.56,-84.8"/>
<text text-anchor="middle" x="819" y="-62.6" font-family="Times,serif" font-size="14.00">AdminRoutingModule</text>
</g>
<!-- AdminRoutingModule&#45;&gt;AdminModule -->
<g id="edge6" class="edge">
<title>AdminRoutingModule&#45;&gt;AdminModule</title>
<path fill="none" stroke="black" d="M819,-85.02C819,-105.17 819,-134.8 819,-134.8 819,-134.8 586.53,-134.8 586.53,-134.8"/>
<polygon fill="black" stroke="black" points="586.53,-131.3 576.53,-134.8 586.53,-138.3 586.53,-131.3"/>
</g>
<!-- SharedModule -->
<g id="node8" class="node">
<title>SharedModule</title>
<polygon fill="#8dd3c7" stroke="black" points="1007.43,-84.8 1004.43,-88.8 983.43,-88.8 980.43,-84.8 908.57,-84.8 908.57,-48.8 1007.43,-48.8 1007.43,-84.8"/>
<text text-anchor="middle" x="958" y="-62.6" font-family="Times,serif" font-size="14.00">SharedModule</text>
</g>
<!-- SharedModule&#45;&gt;AdminModule -->
<g id="edge7" class="edge">
<title>SharedModule&#45;&gt;AdminModule</title>
<path fill="none" stroke="black" d="M958,-85.05C958,-107.82 958,-143.8 958,-143.8 958,-143.8 586.44,-143.8 586.44,-143.8"/>
<polygon fill="black" stroke="black" points="586.44,-140.3 576.44,-143.8 586.44,-147.3 586.44,-140.3"/>
</g>
<!-- AppModule -->
<g id="node16" class="node">
<title>AppModule</title>
<polygon fill="#8dd3c7" stroke="black" points="1735.66,-152.8 1732.66,-156.8 1711.66,-156.8 1708.66,-152.8 1652.34,-152.8 1652.34,-116.8 1735.66,-116.8 1735.66,-152.8"/>
<text text-anchor="middle" x="1694" y="-130.6" font-family="Times,serif" font-size="14.00">AppModule</text>
</g>
<!-- SharedModule&#45;&gt;AppModule -->
<g id="edge16" class="edge">
<title>SharedModule&#45;&gt;AppModule</title>
<path fill="none" stroke="black" d="M1007.56,-60.8C1062.89,-60.8 1144.76,-60.8 1144.76,-60.8 1144.76,-60.8 1144.76,-145.8 1144.76,-145.8 1144.76,-145.8 1642.27,-145.8 1642.27,-145.8"/>
<polygon fill="black" stroke="black" points="1642.27,-149.3 1652.27,-145.8 1642.27,-142.3 1642.27,-149.3"/>
</g>
<!-- UIModule  -->
<g id="node19" class="node">
<title>UIModule </title>
<polygon fill="#fb8072" stroke="black" points="1124.82,-152.8 1047.18,-152.8 1047.18,-116.8 1124.82,-116.8 1124.82,-152.8"/>
<text text-anchor="middle" x="1086" y="-130.6" font-family="Times,serif" font-size="14.00">UIModule </text>
</g>
<!-- SharedModule&#45;&gt;UIModule  -->
<g id="edge18" class="edge">
<title>SharedModule&#45;&gt;UIModule </title>
<path fill="none" stroke="black" stroke-dasharray="5,2" d="M1007.49,-72.8C1043.51,-72.8 1086,-72.8 1086,-72.8 1086,-72.8 1086,-106.53 1086,-106.53"/>
<polygon fill="black" stroke="black" points="1082.5,-106.53 1086,-116.53 1089.5,-106.53 1082.5,-106.53"/>
</g>
<!-- AppComponent -->
<g id="node9" class="node">
<title>AppComponent</title>
<polygon fill="#ffffb3" stroke="black" points="2348.94,-84.8 2243.06,-84.8 2243.06,-48.8 2348.94,-48.8 2348.94,-84.8"/>
<text text-anchor="middle" x="2296" y="-62.6" font-family="Times,serif" font-size="14.00">AppComponent</text>
</g>
<!-- AppComponent&#45;&gt;AppModule -->
<g id="edge8" class="edge">
<title>AppComponent&#45;&gt;AppModule</title>
<path fill="none" stroke="black" d="M2296,-85.12C2296,-108.46 2296,-145.8 2296,-145.8 2296,-145.8 1745.85,-145.8 1745.85,-145.8"/>
<polygon fill="black" stroke="black" points="1745.85,-142.3 1735.85,-145.8 1745.85,-149.3 1745.85,-142.3"/>
</g>
<!-- ExponentialStrengthPipe -->
<g id="node10" class="node">
<title>ExponentialStrengthPipe</title>
<polygon fill="#ffffb3" stroke="black" points="2224.98,-84.8 2069.02,-84.8 2069.02,-48.8 2224.98,-48.8 2224.98,-84.8"/>
<text text-anchor="middle" x="2147" y="-62.6" font-family="Times,serif" font-size="14.00">ExponentialStrengthPipe</text>
</g>
<!-- ExponentialStrengthPipe&#45;&gt;AppModule -->
<g id="edge9" class="edge">
<title>ExponentialStrengthPipe&#45;&gt;AppModule</title>
<path fill="none" stroke="black" d="M2147,-84.97C2147,-106.3 2147,-138.8 2147,-138.8 2147,-138.8 1745.81,-138.8 1745.81,-138.8"/>
<polygon fill="black" stroke="black" points="1745.81,-135.3 1735.81,-138.8 1745.81,-142.3 1745.81,-135.3"/>
</g>
<!-- GetStartedComponent -->
<g id="node11" class="node">
<title>GetStartedComponent</title>
<polygon fill="#ffffb3" stroke="black" points="2050.7,-84.8 1909.3,-84.8 1909.3,-48.8 2050.7,-48.8 2050.7,-84.8"/>
<text text-anchor="middle" x="1980" y="-62.6" font-family="Times,serif" font-size="14.00">GetStartedComponent</text>
</g>
<!-- GetStartedComponent&#45;&gt;AppModule -->
<g id="edge10" class="edge">
<title>GetStartedComponent&#45;&gt;AppModule</title>
<path fill="none" stroke="black" d="M1980,-84.91C1980,-104.14 1980,-131.8 1980,-131.8 1980,-131.8 1745.89,-131.8 1745.89,-131.8"/>
<polygon fill="black" stroke="black" points="1745.89,-128.3 1735.89,-131.8 1745.89,-135.3 1745.89,-128.3"/>
</g>
<!-- HeaderComponent -->
<g id="node12" class="node">
<title>HeaderComponent</title>
<polygon fill="#ffffb3" stroke="black" points="1891.75,-84.8 1770.25,-84.8 1770.25,-48.8 1891.75,-48.8 1891.75,-84.8"/>
<text text-anchor="middle" x="1831" y="-62.6" font-family="Times,serif" font-size="14.00">HeaderComponent</text>
</g>
<!-- HeaderComponent&#45;&gt;AppModule -->
<g id="edge11" class="edge">
<title>HeaderComponent&#45;&gt;AppModule</title>
<path fill="none" stroke="black" d="M1831,-84.83C1831,-101.86 1831,-124.8 1831,-124.8 1831,-124.8 1745.85,-124.8 1745.85,-124.8"/>
<polygon fill="black" stroke="black" points="1745.85,-121.3 1735.85,-124.8 1745.85,-128.3 1745.85,-121.3"/>
</g>
<!-- HomeComponent -->
<g id="node13" class="node">
<title>HomeComponent</title>
<polygon fill="#ffffb3" stroke="black" points="1751.55,-84.8 1636.45,-84.8 1636.45,-48.8 1751.55,-48.8 1751.55,-84.8"/>
<text text-anchor="middle" x="1694" y="-62.6" font-family="Times,serif" font-size="14.00">HomeComponent</text>
</g>
<!-- HomeComponent&#45;&gt;AppModule -->
<g id="edge12" class="edge">
<title>HomeComponent&#45;&gt;AppModule</title>
<path fill="none" stroke="black" d="M1694,-85.02C1694,-85.02 1694,-106.53 1694,-106.53"/>
<polygon fill="black" stroke="black" points="1690.5,-106.53 1694,-116.53 1697.5,-106.53 1690.5,-106.53"/>
</g>
<!-- LoginFormComponent -->
<g id="node14" class="node">
<title>LoginFormComponent</title>
<polygon fill="#ffffb3" stroke="black" points="1618.61,-84.8 1473.39,-84.8 1473.39,-48.8 1618.61,-48.8 1618.61,-84.8"/>
<text text-anchor="middle" x="1546" y="-62.6" font-family="Times,serif" font-size="14.00">LoginFormComponent</text>
</g>
<!-- LoginFormComponent&#45;&gt;AppModule -->
<g id="edge13" class="edge">
<title>LoginFormComponent&#45;&gt;AppModule</title>
<path fill="none" stroke="black" d="M1546,-84.83C1546,-101.86 1546,-124.8 1546,-124.8 1546,-124.8 1641.99,-124.8 1641.99,-124.8"/>
<polygon fill="black" stroke="black" points="1641.99,-128.3 1651.99,-124.8 1641.98,-121.3 1641.99,-128.3"/>
</g>
<!-- NotFoundComponent -->
<g id="node15" class="node">
<title>NotFoundComponent</title>
<polygon fill="#ffffb3" stroke="black" points="1455.12,-84.8 1316.88,-84.8 1316.88,-48.8 1455.12,-48.8 1455.12,-84.8"/>
<text text-anchor="middle" x="1386" y="-62.6" font-family="Times,serif" font-size="14.00">NotFoundComponent</text>
</g>
<!-- NotFoundComponent&#45;&gt;AppModule -->
<g id="edge14" class="edge">
<title>NotFoundComponent&#45;&gt;AppModule</title>
<path fill="none" stroke="black" d="M1386,-84.91C1386,-104.14 1386,-131.8 1386,-131.8 1386,-131.8 1642.14,-131.8 1642.14,-131.8"/>
<polygon fill="black" stroke="black" points="1642.14,-135.3 1652.14,-131.8 1642.14,-128.3 1642.14,-135.3"/>
</g>
<!-- AppComponent  -->
<g id="node18" class="node">
<title>AppComponent </title>
<polygon fill="#80b1d3" stroke="black" points="1748.44,-220.8 1639.56,-220.8 1639.56,-184.8 1748.44,-184.8 1748.44,-220.8"/>
<text text-anchor="middle" x="1694" y="-198.6" font-family="Times,serif" font-size="14.00">AppComponent </text>
</g>
<!-- AppModule&#45;&gt;AppComponent  -->
<g id="edge17" class="edge">
<title>AppModule&#45;&gt;AppComponent </title>
<path fill="none" stroke="black" stroke-dasharray="1,5" d="M1694,-153.02C1694,-153.02 1694,-174.53 1694,-174.53"/>
<polygon fill="black" stroke="black" points="1690.5,-174.53 1694,-184.53 1697.5,-174.53 1690.5,-174.53"/>
</g>
<!-- AppRoutingModule -->
<g id="node17" class="node">
<title>AppRoutingModule</title>
<polygon fill="#8dd3c7" stroke="black" points="1293.28,-84.8 1290.28,-88.8 1269.28,-88.8 1266.28,-84.8 1164.72,-84.8 1164.72,-48.8 1293.28,-48.8 1293.28,-84.8"/>
<text text-anchor="middle" x="1229" y="-62.6" font-family="Times,serif" font-size="14.00">AppRoutingModule</text>
</g>
<!-- AppRoutingModule&#45;&gt;AppModule -->
<g id="edge15" class="edge">
<title>AppRoutingModule&#45;&gt;AppModule</title>
<path fill="none" stroke="black" d="M1229,-84.97C1229,-106.3 1229,-138.8 1229,-138.8 1229,-138.8 1642.33,-138.8 1642.33,-138.8"/>
<polygon fill="black" stroke="black" points="1642.33,-142.3 1652.33,-138.8 1642.33,-135.3 1642.33,-142.3"/>
</g>
</g>
</svg>
